<svg width="14" height="14" viewBox="0 0 14 14" fill="none" xmlns="http://www.w3.org/2000/svg">
<path d="M1.0874 0.081385C0.491729 -0.216282 -0.167604 0.352052 0.0387291 0.985052L1.37673 5.08672C1.41457 5.2026 1.48346 5.30588 1.57591 5.38534C1.66835 5.46479 1.78081 5.51738 1.90106 5.53738L7.18773 6.41838C7.46606 6.46505 7.46606 6.86505 7.18773 6.91172L1.9014 7.79272C1.78115 7.81272 1.66869 7.86531 1.57624 7.94477C1.4838 8.02423 1.41491 8.12751 1.37706 8.24339L0.0387291 12.3474C-0.167938 12.9807 0.491729 13.5491 1.0874 13.2514L12.9187 7.33738C13.4717 7.06072 13.4717 6.27172 12.9187 5.99539L1.0874 0.081385Z" fill="white"/>
</svg>
