<svg width="23" height="22" viewBox="0 0 23 22" fill="none" xmlns="http://www.w3.org/2000/svg">
<path fill-rule="evenodd" clip-rule="evenodd" d="M17.2354 7.07861C17.7352 7.05505 18.2474 7.11279 18.7234 6.95866C20.4595 6.39649 21.5411 5.08333 21.4919 4.05895C21.4022 2.1827 20.0478 1.23977 17.1279 1.22787H17.0903C16.9335 1.22814 16.782 1.17043 16.6651 1.06584C16.5482 0.961246 16.474 0.817141 16.4568 0.661201C16.4486 0.5874 16.4556 0.512702 16.4772 0.441665C16.4988 0.370628 16.5347 0.304742 16.5826 0.248029C16.6305 0.191316 16.6895 0.144965 16.756 0.111806C16.8224 0.0786463 16.8949 0.0593734 16.969 0.0551638L17.0752 0.0487556C17.944 -0.0061723 18.9043 -0.0382135 19.4225 0.0844587C21.583 0.596661 22.7822 1.89937 22.8829 3.99212C22.963 5.65643 21.7249 7.28321 19.9823 8.56944C19.9534 8.59026 19.9449 8.6295 19.9622 8.66063C20.2818 9.2368 20.4875 9.87805 20.5792 10.5844C20.9078 12.6936 20.6021 14.0055 20.8364 14.8742C21.0712 15.7435 22.1391 16.22 22.5607 17.1908C22.9823 18.1617 22.904 18.5869 22.7804 19.3513C22.7075 19.8048 22.543 20.4673 22.287 21.3388C22.2587 21.435 22.2 21.5194 22.1197 21.5795C22.0395 21.6396 21.9419 21.672 21.8416 21.672H20.2986C20.0423 21.672 19.8344 21.4642 19.8344 21.2079V20.9744C19.8344 20.9131 19.8466 20.8523 19.8703 20.7956C19.8939 20.739 19.9285 20.6876 19.9722 20.6444C20.0158 20.6013 20.0676 20.5672 20.1245 20.5442C20.1814 20.5211 20.2423 20.5096 20.3036 20.5103C20.512 20.513 20.6896 20.4581 20.8364 20.3455C21.2076 20.0617 21.2383 19.9033 21.2383 19.3513C21.2383 19.0863 21.1688 18.8201 21.0299 18.5527C20.9179 18.3371 20.732 18.1721 20.5276 18.0407C20.3547 17.9296 20.1865 17.8227 20.0227 17.7199C19.101 17.1419 17.9568 17.7697 17.5856 18.7924C17.3339 19.4864 16.8964 20.3692 16.2733 21.4409C16.2326 21.5113 16.1741 21.5698 16.1036 21.6103C16.0331 21.6509 15.9532 21.6722 15.8719 21.672H14.6506C14.3989 21.672 14.1929 21.4715 14.1869 21.2198L14.1815 21.0092C14.1782 20.8878 14.2227 20.7699 14.3054 20.6809C14.388 20.5919 14.5023 20.5389 14.6236 20.5332L15.2622 20.503C15.4507 20.4938 15.6151 20.3716 15.6778 20.1935C15.8893 19.593 15.9762 19.0028 15.9387 18.423C15.8307 16.7703 14.1777 15.7734 12.5411 16.0276C11.2528 16.2277 10.018 16.4673 9.58949 16.5029C9.26706 16.5297 8.96279 16.7186 8.89163 17.0343C8.82135 17.3461 8.77442 17.6629 8.75138 17.9822C8.70439 18.5916 8.70011 19.663 8.73856 21.1964C8.74009 21.2583 8.72921 21.3199 8.70657 21.3776C8.68393 21.4352 8.64999 21.4877 8.60673 21.5321C8.56348 21.5764 8.5118 21.6116 8.45473 21.6356C8.39765 21.6597 8.33635 21.672 8.27442 21.672H7.00605C6.74972 21.672 6.54191 21.4642 6.54191 21.2079V20.8893C6.54191 20.633 6.74972 20.4252 7.00605 20.4252H7.2015C7.27396 20.4251 7.34535 20.4077 7.40961 20.3742C7.47387 20.3407 7.5291 20.2922 7.57061 20.2328C7.61213 20.1734 7.6387 20.1049 7.64807 20.033C7.65744 19.9611 7.64933 19.8881 7.62444 19.82C7.40684 19.2305 6.4958 19.154 6.24895 19.7318L5.54039 21.3905C5.46715 21.5613 5.29916 21.672 5.11333 21.672H3.42887C3.17254 21.672 2.96427 21.4642 2.96427 21.2079V20.9708C2.96427 20.7456 3.12585 20.5529 3.34739 20.514L4.14934 20.3716C4.25004 20.3533 4.3425 20.3029 4.41162 20.227C4.73722 19.8684 4.94717 19.4218 5.04146 18.8872C5.27399 17.5685 5.42138 17.4256 5.04146 16.1577C4.91787 15.7435 4.01065 15.3398 3.43024 13.5047C3.05826 12.3302 2.72839 10.3349 2.44063 7.51894C2.43027 7.41738 2.38672 7.32206 2.31671 7.24775C2.24671 7.17344 2.15415 7.12429 2.05339 7.1079L1.16172 6.96372C1.0244 6.94129 0.904021 6.85844 0.833988 6.73805L0.128165 5.51865L0.10894 5.48799C0.039824 5.39322 0.00176599 5.27936 0 5.16208C0 5.07237 0.0233444 4.97975 0.0700331 4.88424C0.0950558 4.83328 0.128165 4.78842 0.169361 4.74967L1.09169 3.88318C1.15577 3.8223 1.202 3.74448 1.22398 3.65889L1.27616 3.45154C1.32285 3.26707 1.42538 3.10091 1.56911 2.97641C1.84649 2.73747 2.05125 2.57727 2.18338 2.49579C2.18852 2.49263 2.19383 2.48946 2.19931 2.48626C2.6487 2.22413 2.82366 1.68091 2.77569 1.16288C2.73678 0.747712 2.70382 0.336669 2.87181 0.320648C2.89151 0.318834 2.91647 0.326804 2.94671 0.344558C3.25448 0.525274 3.64487 0.042876 3.96762 0.19523C4.16414 0.287997 4.59594 0.824001 5.263 1.80324L5.9139 2.54477C6.23006 2.90494 6.46265 3.33057 6.59501 3.79117C6.92396 4.9355 7.23675 5.75927 7.53336 6.26247C8.06387 7.16054 8.7143 8.26642 10.8281 8.10255C12.9415 7.93914 13.6523 7.51116 15.0603 7.28962C15.781 7.17997 16.5071 7.10953 17.2354 7.07861Z" fill="#D9B54A"/>
</svg>
