<svg width="30" height="30" viewBox="0 0 30 30" fill="none" xmlns="http://www.w3.org/2000/svg">
<path d="M14.8125 0C6.62962 0 0 6.62962 0 14.8125C0 22.9954 6.62962 29.625 14.8125 29.625C22.9954 29.625 29.625 22.9954 29.625 14.8125C29.625 6.62962 22.9954 0 14.8125 0ZM16.4172 6.48047H13.213L14.8125 3.70312L16.4172 6.48047ZM14.8125 27.4546C10.5951 27.4546 6.86107 25.3921 4.56719 22.2188H25.063C22.7639 25.3921 19.0299 27.4546 14.8125 27.4546ZM5.37467 20.0483L10.0036 12.0352H19.6214L24.2503 20.0483H5.37467ZM20.6912 10.1836H18.5516H11.0734H8.93379L3.27624 19.9866C2.56647 18.4076 2.17044 16.6538 2.17044 14.8125C2.17044 8.26517 7.14909 2.88021 13.5215 2.2373L10.0036 8.33203H12.138H17.487H19.6266L16.1035 2.2373C22.4811 2.88021 27.4546 8.26517 27.4546 14.8125C27.4546 16.6538 27.0585 18.4076 26.3488 19.9866L20.6912 10.1836Z" fill="#A7A8A3"/>
</svg>
