<svg aria-hidden="true" style="position: absolute; width: 0; height: 0; overflow: hidden;" version="1.1" xmlns="http://www.w3.org/2000/svg" xmlns:xlink="http://www.w3.org/1999/xlink">
<defs>
<symbol id="icon-gray-cat" viewBox="0 0 33 32">
<path fill="currentColor" opacity="0.2" d="M25.070 10.296c0.727-0.034 1.472 0.050 2.164-0.174 2.525-0.818 4.098-2.728 4.027-4.218-0.13-2.729-2.101-4.101-6.348-4.118h-0.055c-0.228 0-0.448-0.084-0.618-0.236s-0.278-0.362-0.303-0.589c-0.012-0.107-0.002-0.216 0.030-0.319s0.084-0.199 0.153-0.282c0.070-0.083 0.155-0.15 0.252-0.198s0.202-0.076 0.31-0.082l0.154-0.009c1.264-0.080 2.66-0.127 3.414 0.052 3.143 0.745 4.887 2.64 5.033 5.684 0.117 2.421-1.684 4.787-4.219 6.658-0.042 0.030-0.054 0.087-0.029 0.133 0.465 0.838 0.764 1.771 0.897 2.798 0.478 3.068 0.033 4.976 0.374 6.24s1.895 1.958 2.508 3.37c0.613 1.412 0.499 2.031 0.32 3.143-0.106 0.66-0.345 1.623-0.718 2.891-0.041 0.14-0.127 0.263-0.243 0.35s-0.259 0.135-0.404 0.135h-2.244c-0.373 0-0.675-0.302-0.675-0.675v-0.34c0-0.089 0.018-0.178 0.052-0.26s0.085-0.157 0.148-0.22c0.063-0.063 0.139-0.112 0.222-0.146s0.171-0.050 0.261-0.049c0.303 0.004 0.561-0.076 0.775-0.24 0.54-0.413 0.585-0.643 0.585-1.446 0-0.385-0.101-0.773-0.303-1.162-0.163-0.314-0.433-0.554-0.731-0.745-0.252-0.162-0.496-0.317-0.734-0.467-1.341-0.841-3.005 0.072-3.545 1.56-0.366 1.009-1.002 2.294-1.909 3.852-0.059 0.102-0.144 0.188-0.247 0.246s-0.219 0.090-0.337 0.090h-1.776c-0.366 0-0.666-0.292-0.674-0.658l-0.008-0.306c-0.005-0.177 0.060-0.348 0.18-0.478s0.286-0.207 0.463-0.215l0.929-0.044c0.274-0.013 0.513-0.191 0.605-0.45 0.308-0.873 0.434-1.732 0.38-2.575-0.157-2.404-2.561-3.854-4.942-3.484-1.874 0.291-3.67 0.64-4.293 0.691-0.469 0.039-0.912 0.314-1.015 0.773-0.102 0.454-0.171 0.914-0.204 1.379-0.068 0.886-0.075 2.445-0.019 4.675 0.002 0.090-0.014 0.18-0.047 0.264s-0.082 0.16-0.145 0.225c-0.063 0.064-0.138 0.116-0.221 0.151s-0.172 0.053-0.262 0.053h-1.845c-0.373 0-0.675-0.302-0.675-0.675v-0.463c0-0.373 0.302-0.675 0.675-0.675h0.284c0.105-0 0.209-0.025 0.303-0.074s0.174-0.119 0.234-0.206c0.060-0.086 0.099-0.186 0.113-0.291s0.002-0.211-0.034-0.31c-0.316-0.857-1.642-0.969-2.001-0.128l-1.031 2.413c-0.107 0.248-0.351 0.409-0.621 0.409h-2.45c-0.373 0-0.676-0.302-0.676-0.675v-0.345c0-0.328 0.235-0.608 0.557-0.664l1.166-0.207c0.146-0.027 0.281-0.1 0.381-0.21 0.474-0.522 0.779-1.171 0.916-1.949 0.338-1.918 0.553-2.126 0-3.97-0.18-0.602-1.499-1.19-2.344-3.859-0.541-1.708-1.021-4.611-1.439-8.707-0.015-0.148-0.078-0.286-0.18-0.394s-0.236-0.18-0.383-0.203l-1.297-0.21c-0.2-0.033-0.375-0.153-0.477-0.328l-1.027-1.774-0.028-0.045c-0.101-0.138-0.156-0.303-0.158-0.474 0-0.13 0.034-0.265 0.102-0.404 0.036-0.074 0.085-0.139 0.144-0.196l1.342-1.26c0.093-0.089 0.16-0.202 0.192-0.326l0.076-0.302c0.068-0.268 0.217-0.51 0.426-0.691 0.403-0.348 0.701-0.581 0.893-0.699 0.007-0.005 0.015-0.009 0.023-0.014 0.654-0.381 0.908-1.171 0.838-1.925-0.057-0.604-0.105-1.202 0.14-1.225 0.029-0.003 0.065 0.009 0.109 0.035 0.448 0.263 1.016-0.439 1.485-0.217 0.286 0.135 0.914 0.915 1.884 2.339l0.947 1.079c0.46 0.524 0.798 1.143 0.991 1.813 0.478 1.664 0.933 2.863 1.365 3.595 0.772 1.306 1.718 2.915 4.792 2.676s4.108-0.86 6.156-1.182c1.048-0.159 2.104-0.262 3.164-0.307z"></path>
</symbol>
<symbol id="icon-back" viewBox="0 0 32 32">
<path fill="none" stroke="#7a828c" style="stroke: var(--color2, #7a828c)" stroke-linejoin="round" stroke-linecap="round" stroke-miterlimit="4" stroke-width="3.0769" d="M15.897 1.538l-14.359 14.359M1.538 15.897l14.359 14.359M1.538 15.897h28.718"></path>
</symbol>
<symbol id="icon-blue-cat" viewBox="0 0 32 32">
<path fill="#5295f2" style="fill: var(--color3, #5295f2)" d="M23.98 10.544c0.695-0.033 1.408 0.048 2.070-0.167 2.415-0.782 3.92-2.609 3.852-4.034-0.125-2.61-2.009-3.922-6.072-3.939h-0.052c-0.218 0-0.429-0.080-0.592-0.225s-0.266-0.346-0.29-0.563c-0.011-0.103-0.002-0.207 0.028-0.305s0.080-0.191 0.147-0.269c0.067-0.079 0.149-0.143 0.241-0.19s0.193-0.073 0.296-0.079l0.148-0.009c1.209-0.076 2.545-0.121 3.266 0.050 3.006 0.713 4.674 2.525 4.814 5.437 0.111 2.316-1.611 4.579-4.036 6.368-0.040 0.029-0.052 0.084-0.028 0.127 0.445 0.802 0.731 1.694 0.858 2.677 0.457 2.935 0.032 4.76 0.358 5.968s1.812 1.872 2.399 3.223c0.587 1.351 0.478 1.942 0.306 3.006-0.101 0.631-0.33 1.553-0.686 2.765-0.039 0.134-0.121 0.251-0.233 0.335s-0.247 0.129-0.387 0.129h-2.147c-0.357 0-0.646-0.289-0.646-0.646v-0.325c0-0.085 0.017-0.17 0.050-0.249s0.081-0.15 0.142-0.21c0.061-0.060 0.133-0.107 0.212-0.139s0.164-0.048 0.249-0.047c0.29 0.004 0.537-0.073 0.741-0.229 0.516-0.395 0.559-0.615 0.559-1.383 0-0.369-0.097-0.739-0.29-1.111-0.156-0.3-0.414-0.53-0.699-0.712-0.241-0.155-0.475-0.303-0.702-0.446-1.282-0.804-2.874 0.069-3.391 1.492-0.35 0.966-0.959 2.194-1.826 3.685-0.057 0.098-0.138 0.179-0.236 0.236s-0.209 0.086-0.322 0.086h-1.699c-0.35 0-0.637-0.279-0.645-0.629l-0.008-0.293c-0.005-0.169 0.057-0.333 0.172-0.457s0.274-0.198 0.443-0.206l0.889-0.042c0.262-0.013 0.491-0.183 0.578-0.431 0.294-0.835 0.415-1.657 0.363-2.463-0.15-2.299-2.45-3.686-4.727-3.333-1.792 0.278-3.51 0.612-4.107 0.661-0.449 0.037-0.872 0.3-0.971 0.739-0.098 0.434-0.163 0.875-0.195 1.319-0.065 0.848-0.071 2.338-0.018 4.472 0.002 0.086-0.013 0.172-0.044 0.252s-0.079 0.153-0.139 0.215c-0.060 0.062-0.132 0.111-0.211 0.144s-0.165 0.051-0.251 0.051h-1.765c-0.357 0-0.646-0.289-0.646-0.646v-0.443c0-0.357 0.289-0.646 0.646-0.646h0.272c0.101-0 0.2-0.024 0.29-0.071s0.166-0.114 0.224-0.197c0.058-0.083 0.095-0.178 0.108-0.278s0.002-0.202-0.033-0.296c-0.303-0.82-1.57-0.927-1.914-0.123l-0.986 2.308c-0.102 0.238-0.336 0.392-0.594 0.392h-2.344c-0.357 0-0.646-0.289-0.646-0.646v-0.33c0-0.313 0.225-0.581 0.533-0.636l1.116-0.198c0.14-0.025 0.269-0.096 0.365-0.201 0.453-0.499 0.745-1.12 0.876-1.864 0.324-1.835 0.529-2.034 0-3.798-0.172-0.576-1.434-1.138-2.242-3.691-0.518-1.634-0.977-4.41-1.377-8.328-0.014-0.141-0.075-0.274-0.172-0.377s-0.226-0.172-0.366-0.195l-1.241-0.201c-0.191-0.031-0.359-0.146-0.456-0.314l-0.982-1.697-0.027-0.043c-0.096-0.132-0.149-0.29-0.152-0.453 0-0.125 0.032-0.254 0.097-0.387 0.035-0.071 0.081-0.133 0.138-0.187l1.283-1.206c0.089-0.085 0.153-0.193 0.184-0.312l0.073-0.288c0.065-0.257 0.208-0.488 0.408-0.661 0.386-0.332 0.671-0.555 0.855-0.669 0.007-0.004 0.015-0.009 0.022-0.013 0.625-0.365 0.869-1.12 0.802-1.841-0.054-0.578-0.1-1.149 0.134-1.172 0.027-0.003 0.062 0.009 0.104 0.033 0.428 0.251 0.971-0.42 1.42-0.208 0.273 0.129 0.874 0.875 1.802 2.237l0.906 1.032c0.44 0.501 0.763 1.093 0.948 1.734 0.458 1.592 0.893 2.738 1.306 3.438 0.738 1.249 1.643 2.788 4.584 2.56s3.929-0.823 5.888-1.131c1.003-0.153 2.013-0.251 3.026-0.294z"></path>
</symbol>
<symbol id="icon-green-cat" viewBox="0 0 32 32">
<path fill="#5bc9c0" style="fill: var(--color4, #5bc9c0)" d="M23.98 10.544c0.695-0.033 1.408 0.048 2.070-0.167 2.415-0.782 3.92-2.609 3.852-4.034-0.125-2.61-2.009-3.922-6.072-3.939h-0.052c-0.218 0-0.429-0.080-0.592-0.225s-0.266-0.346-0.29-0.563c-0.011-0.103-0.002-0.207 0.028-0.305s0.080-0.191 0.147-0.269c0.067-0.079 0.149-0.143 0.241-0.19s0.193-0.073 0.296-0.079l0.148-0.009c1.209-0.076 2.545-0.121 3.266 0.050 3.006 0.713 4.674 2.525 4.814 5.437 0.111 2.316-1.611 4.579-4.036 6.368-0.040 0.029-0.052 0.084-0.028 0.127 0.445 0.802 0.731 1.694 0.858 2.677 0.457 2.935 0.032 4.76 0.358 5.968s1.812 1.872 2.399 3.223c0.587 1.351 0.478 1.942 0.306 3.006-0.101 0.631-0.33 1.553-0.686 2.765-0.039 0.134-0.121 0.251-0.233 0.335s-0.247 0.129-0.387 0.129h-2.147c-0.357 0-0.646-0.289-0.646-0.646v-0.325c0-0.085 0.017-0.17 0.050-0.249s0.081-0.15 0.142-0.21c0.061-0.060 0.133-0.107 0.212-0.139s0.164-0.048 0.249-0.047c0.29 0.004 0.537-0.073 0.741-0.229 0.516-0.395 0.559-0.615 0.559-1.383 0-0.369-0.097-0.739-0.29-1.111-0.156-0.3-0.414-0.53-0.699-0.712-0.241-0.155-0.475-0.303-0.702-0.446-1.282-0.804-2.874 0.069-3.391 1.492-0.35 0.966-0.959 2.194-1.826 3.685-0.057 0.098-0.138 0.179-0.236 0.236s-0.209 0.086-0.322 0.086h-1.699c-0.35 0-0.637-0.279-0.645-0.629l-0.008-0.293c-0.005-0.169 0.057-0.333 0.172-0.457s0.274-0.198 0.443-0.206l0.889-0.042c0.262-0.013 0.491-0.183 0.578-0.431 0.294-0.835 0.415-1.657 0.363-2.463-0.15-2.299-2.45-3.686-4.727-3.333-1.792 0.278-3.51 0.612-4.107 0.661-0.449 0.037-0.872 0.3-0.971 0.739-0.098 0.434-0.163 0.875-0.195 1.319-0.065 0.848-0.071 2.338-0.018 4.472 0.002 0.086-0.013 0.172-0.044 0.252s-0.079 0.153-0.139 0.215c-0.060 0.062-0.132 0.111-0.211 0.144s-0.165 0.051-0.251 0.051h-1.765c-0.357 0-0.646-0.289-0.646-0.646v-0.443c0-0.357 0.289-0.646 0.646-0.646h0.272c0.101-0 0.2-0.024 0.29-0.071s0.166-0.114 0.224-0.197c0.058-0.083 0.095-0.178 0.108-0.278s0.002-0.202-0.033-0.296c-0.303-0.82-1.57-0.927-1.914-0.123l-0.986 2.308c-0.102 0.238-0.336 0.392-0.594 0.392h-2.344c-0.357 0-0.646-0.289-0.646-0.646v-0.33c0-0.313 0.225-0.581 0.533-0.636l1.116-0.198c0.14-0.025 0.269-0.096 0.365-0.201 0.453-0.499 0.745-1.12 0.876-1.864 0.324-1.835 0.529-2.034 0-3.798-0.172-0.576-1.434-1.138-2.242-3.691-0.518-1.634-0.977-4.41-1.377-8.328-0.014-0.141-0.075-0.274-0.172-0.377s-0.226-0.172-0.366-0.195l-1.241-0.201c-0.191-0.031-0.359-0.146-0.456-0.314l-0.982-1.697-0.027-0.043c-0.096-0.132-0.149-0.29-0.152-0.453 0-0.125 0.032-0.254 0.097-0.387 0.035-0.071 0.081-0.133 0.138-0.187l1.283-1.206c0.089-0.085 0.153-0.193 0.184-0.312l0.073-0.288c0.065-0.257 0.208-0.488 0.408-0.661 0.386-0.332 0.671-0.555 0.855-0.669 0.007-0.004 0.015-0.009 0.022-0.013 0.625-0.365 0.869-1.12 0.802-1.841-0.054-0.578-0.1-1.149 0.134-1.172 0.027-0.003 0.062 0.009 0.104 0.033 0.428 0.251 0.971-0.42 1.42-0.208 0.273 0.129 0.874 0.875 1.802 2.237l0.906 1.032c0.44 0.501 0.763 1.093 0.948 1.734 0.458 1.592 0.893 2.738 1.306 3.438 0.738 1.249 1.643 2.788 4.584 2.56s3.929-0.823 5.888-1.131c1.003-0.153 2.013-0.251 3.026-0.294z"></path>
</symbol>
<symbol id="icon-trophy" viewBox="0 0 32 32">
<path fill="#ffdc73" style="fill: var(--color5, #ffdc73)" d="M22.667 4c0.327 0 0.642 0.12 0.886 0.337s0.4 0.516 0.438 0.84l0.009 0.156v2.893c0.603-0.213 1.249-0.277 1.882-0.189s1.236 0.327 1.758 0.697c0.522 0.37 0.948 0.859 1.242 1.427s0.447 1.198 0.447 1.838c0 0.64-0.153 1.27-0.447 1.838s-0.72 1.057-1.242 1.427c-0.522 0.37-1.125 0.609-1.758 0.697s-1.279 0.024-1.882-0.189v0.228c-0 1.891-0.67 3.72-1.89 5.164s-2.913 2.409-4.777 2.725v2.777h4c0.34 0 0.667 0.13 0.914 0.364s0.396 0.552 0.416 0.891c0.020 0.339-0.090 0.673-0.309 0.934s-0.527 0.428-0.865 0.468l-0.156 0.009h-10.667c-0.34-0-0.667-0.131-0.914-0.364s-0.396-0.552-0.416-0.891c-0.020-0.339 0.090-0.673 0.309-0.934s0.528-0.428 0.865-0.468l0.156-0.009h4v-2.777c-1.813-0.307-3.466-1.229-4.679-2.611s-1.913-3.14-1.982-4.978l-0.005-0.3v-0.228c-0.585 0.207-1.21 0.275-1.825 0.199s-1.205-0.294-1.722-0.637c-0.517-0.343-0.947-0.802-1.256-1.339s-0.489-1.14-0.525-1.76l-0.004-0.235 0.007-0.235c0.036-0.619 0.216-1.222 0.525-1.759s0.739-0.997 1.255-1.34c0.517-0.343 1.106-0.562 1.722-0.638s1.24-0.008 1.825 0.198l-0.001-2.893c0-0.354 0.14-0.693 0.391-0.943s0.589-0.391 0.943-0.391h13.333zM6.667 10.667c-0.354 0-0.693 0.14-0.943 0.391s-0.391 0.589-0.391 0.943c0 0.354 0.14 0.693 0.391 0.943s0.589 0.391 0.943 0.391c0.354 0 0.693-0.141 0.943-0.391s0.391-0.589 0.391-0.943c0-0.354-0.14-0.693-0.391-0.943s-0.589-0.391-0.943-0.391zM25.333 10.667c-0.354 0-0.693 0.14-0.943 0.391s-0.391 0.589-0.391 0.943 0.14 0.693 0.391 0.943c0.25 0.25 0.589 0.391 0.943 0.391s0.693-0.141 0.943-0.391c0.25-0.25 0.391-0.589 0.391-0.943s-0.141-0.693-0.391-0.943c-0.25-0.25-0.589-0.391-0.943-0.391z"></path>
</symbol>
<symbol id="icon-yellow-cat" viewBox="0 0 32 32">
<path fill="#d9b54a" style="fill: var(--color6, #d9b54a)" d="M23.98 10.544c0.695-0.033 1.408 0.048 2.070-0.167 2.415-0.782 3.92-2.609 3.852-4.034-0.125-2.61-2.009-3.922-6.072-3.939h-0.052c-0.218 0-0.429-0.080-0.592-0.225s-0.266-0.346-0.29-0.563c-0.011-0.103-0.002-0.207 0.028-0.305s0.080-0.191 0.147-0.269c0.067-0.079 0.149-0.143 0.241-0.19s0.193-0.073 0.296-0.079l0.148-0.009c1.209-0.076 2.545-0.121 3.266 0.050 3.006 0.713 4.674 2.525 4.814 5.437 0.111 2.316-1.611 4.579-4.036 6.368-0.040 0.029-0.052 0.084-0.028 0.127 0.445 0.802 0.731 1.694 0.858 2.677 0.457 2.935 0.032 4.76 0.358 5.968s1.812 1.872 2.399 3.223c0.587 1.351 0.478 1.942 0.306 3.006-0.101 0.631-0.33 1.553-0.686 2.765-0.039 0.134-0.121 0.251-0.233 0.335s-0.247 0.129-0.387 0.129h-2.147c-0.357 0-0.646-0.289-0.646-0.646v-0.325c0-0.085 0.017-0.17 0.050-0.249s0.081-0.15 0.142-0.21c0.061-0.060 0.133-0.107 0.212-0.139s0.164-0.048 0.249-0.047c0.29 0.004 0.537-0.073 0.741-0.229 0.516-0.395 0.559-0.615 0.559-1.383 0-0.369-0.097-0.739-0.29-1.111-0.156-0.3-0.414-0.53-0.699-0.712-0.241-0.155-0.475-0.303-0.702-0.446-1.282-0.804-2.874 0.069-3.391 1.492-0.35 0.966-0.959 2.194-1.826 3.685-0.057 0.098-0.138 0.179-0.236 0.236s-0.209 0.086-0.322 0.086h-1.699c-0.35 0-0.637-0.279-0.645-0.629l-0.008-0.293c-0.005-0.169 0.057-0.333 0.172-0.457s0.274-0.198 0.443-0.206l0.889-0.042c0.262-0.013 0.491-0.183 0.578-0.431 0.294-0.835 0.415-1.657 0.363-2.463-0.15-2.299-2.45-3.686-4.727-3.333-1.792 0.278-3.51 0.612-4.107 0.661-0.449 0.037-0.872 0.3-0.971 0.739-0.098 0.434-0.163 0.875-0.195 1.319-0.065 0.848-0.071 2.338-0.018 4.472 0.002 0.086-0.013 0.172-0.044 0.252s-0.079 0.153-0.139 0.215c-0.060 0.062-0.132 0.111-0.211 0.144s-0.165 0.051-0.251 0.051h-1.765c-0.357 0-0.646-0.289-0.646-0.646v-0.443c0-0.357 0.289-0.646 0.646-0.646h0.272c0.101-0 0.2-0.024 0.29-0.071s0.166-0.114 0.224-0.197c0.058-0.083 0.095-0.178 0.108-0.278s0.002-0.202-0.033-0.296c-0.303-0.82-1.57-0.927-1.914-0.123l-0.986 2.308c-0.102 0.238-0.336 0.392-0.594 0.392h-2.344c-0.357 0-0.646-0.289-0.646-0.646v-0.33c0-0.313 0.225-0.581 0.533-0.636l1.116-0.198c0.14-0.025 0.269-0.096 0.365-0.201 0.453-0.499 0.745-1.12 0.876-1.864 0.324-1.835 0.529-2.034 0-3.798-0.172-0.576-1.434-1.138-2.242-3.691-0.518-1.634-0.977-4.41-1.377-8.328-0.014-0.141-0.075-0.274-0.172-0.377s-0.226-0.172-0.366-0.195l-1.241-0.201c-0.191-0.031-0.359-0.146-0.456-0.314l-0.982-1.697-0.027-0.043c-0.096-0.132-0.149-0.29-0.152-0.453 0-0.125 0.032-0.254 0.097-0.387 0.035-0.071 0.081-0.133 0.138-0.187l1.283-1.206c0.089-0.085 0.153-0.193 0.184-0.312l0.073-0.288c0.065-0.257 0.208-0.488 0.408-0.661 0.386-0.332 0.671-0.555 0.855-0.669 0.007-0.004 0.015-0.009 0.022-0.013 0.625-0.365 0.869-1.12 0.802-1.841-0.054-0.578-0.1-1.149 0.134-1.172 0.027-0.003 0.062 0.009 0.104 0.033 0.428 0.251 0.971-0.42 1.42-0.208 0.273 0.129 0.874 0.875 1.802 2.237l0.906 1.032c0.44 0.501 0.763 1.093 0.948 1.734 0.458 1.592 0.893 2.738 1.306 3.438 0.738 1.249 1.643 2.788 4.584 2.56s3.929-0.823 5.888-1.131c1.003-0.153 2.013-0.251 3.026-0.294z"></path>
</symbol>
<symbol id="icon-logo" viewBox="0 0 32 32">
<path fill="#a7a8a3" style="fill: var(--color7, #a7a8a3)" d="M15.8 0c-8.728 0-15.8 7.072-15.8 15.8s7.072 15.8 15.8 15.8c8.728 0 15.8-7.072 15.8-15.8s-7.072-15.8-15.8-15.8zM17.512 6.912h-3.418l1.706-2.962 1.712 2.962zM15.8 29.285c-4.499 0-8.482-2.2-10.928-5.585h21.862c-2.452 3.385-6.435 5.585-10.934 5.585zM5.733 21.385l4.938-8.547h10.259l4.938 8.547h-20.134zM22.071 10.863h-12.541l-6.035 10.457c-0.757-1.684-1.18-3.555-1.18-5.519 0-6.984 5.311-12.728 12.108-13.414l-3.752 6.501h10.265l-3.758-6.501c6.803 0.686 12.108 6.43 12.108 13.414 0 1.964-0.422 3.835-1.18 5.519l-6.035-10.457z"></path>
</symbol>
<symbol id="icon-right" viewBox="0 0 32 32">
<path fill="none" stroke="#c3c6c9" style="stroke: var(--color8, #c3c6c9)" stroke-linejoin="round" stroke-linecap="round" stroke-miterlimit="4" stroke-width="4" d="M16 2l14 14M30 16l-14 14M30 16h-28"></path>
</symbol>
</defs>
</svg>
