<svg width="20" height="20" viewBox="0 0 20 20" fill="none" xmlns="http://www.w3.org/2000/svg">
<path d="M11.2637 0.88875C10.6117 -0.29625 8.89571 -0.29625 8.24271 0.88875C7.384 2.44914 6.67612 4.08789 6.12871 5.78275C6.10289 5.84906 6.05748 5.90593 5.99852 5.94577C5.93956 5.98561 5.86986 6.00653 5.79871 6.00575C4.33168 6.04388 2.86942 6.18961 1.42371 6.44175C0.0867101 6.67475 -0.50229 8.27875 0.51371 9.27175C0.64171 9.39708 0.771043 9.52175 0.90171 9.64575C1.88052 10.5726 2.91692 11.4366 4.00471 12.2327C4.05413 12.2656 4.09157 12.3135 4.1114 12.3694C4.13124 12.4253 4.1324 12.4861 4.11471 12.5428C3.56555 14.1904 3.17314 15.8863 2.94271 17.6077C2.75271 19.0317 4.26071 19.9058 5.43771 19.3018C6.86659 18.5694 8.23286 17.7209 9.52271 16.7647C9.59026 16.717 9.67097 16.6913 9.75371 16.6913C9.83645 16.6913 9.91716 16.717 9.98471 16.7647C11.2738 17.722 12.6402 18.5706 14.0697 19.3018C15.2467 19.9058 16.7547 19.0317 16.5647 17.6077C16.3346 15.8863 15.9425 14.1905 15.3937 12.5428C15.376 12.4861 15.3772 12.4253 15.397 12.3694C15.4169 12.3135 15.4543 12.2656 15.5037 12.2327C16.7362 11.3306 17.9025 10.3414 18.9937 9.27275C20.0097 8.27875 19.4207 6.67475 18.0837 6.44175C16.6377 6.18956 15.1751 6.04383 13.7077 6.00575C13.6367 6.00633 13.5672 5.98531 13.5085 5.94548C13.4497 5.90565 13.4045 5.8489 13.3787 5.78275C12.833 4.08724 12.1241 2.44832 11.2637 0.88875Z" fill="#DCDFE3"/>
</svg>
